<svg xmlns="http://www.w3.org/2000/svg" style="display: none;">
  <symbol id="back" viewBox="0 0 6 10" stroke="none">
    <path
      d="M0 5c0 .14.06.27.17.38l4.87 4.46c.1.1.24.16.4.16.31 0 .56-.22.56-.52a.53.53 0 0 0-.17-.38L1.37 5 5.83.9C5.93.8 6 .67 6 .52 6 .22 5.75 0 5.44 0c-.16 0-.3.05-.4.15L.17 4.62A.5.5 0 0 0 0 5Z" />
  </symbol>
  <symbol id="card" viewBox="0 0 16 16" stroke="none">
    <path fill-rule="evenodd" clip-rule="evenodd"
      d="M.76 5.82a1 1 0 0 1 .7-1.22l10.6-2.84a1 1 0 0 1 1.23.7l.81 3.04H2.5a1.5 1.5 0 0 0-1.48 1.28l-.26-.96Zm1.74.68H14c.28 0 .5.22.5.5v1H2V7c0-.28.22-.5.5-.5Zm12.5 3V7a1 1 0 0 0-1-1H2.5a1 1 0 0 0-1 1v6.5a1 1 0 0 0 1 1H14a1 1 0 0 0 1-1v-4Zm-13 4v-4h12.5v4a.5.5 0 0 1-.5.5H2.5a.5.5 0 0 1-.5-.5Zm9.5-2.5a1 1 0 1 0 0 2h1a1 1 0 1 0 0-2h-1Z" />
  </symbol>
  <symbol id="crypto" viewBox="0 0 32 32" stroke="none">
    <path fill-rule="evenodd" clip-rule="evenodd"
      d="M16.92 7a6 6 0 0 0-.2-.78A4.98 4.98 0 0 1 24 7h-7.08ZM6.76 3.76A6 6 0 0 0 5.08 7H4a2 2 0 0 0-2 2v18c0 1.1.9 2 2 2h23a2 2 0 0 0 2-2v-5.27A2 2 0 0 0 30 20v-4a2 2 0 0 0-1-1.73V9a2 2 0 0 0-2-2h-1.8a6 6 0 0 0-8.87-1.75 6 6 0 0 0-9.57-1.5ZM27 8H4a1 1 0 0 0-1 1v6.5h2.85L8.09 14a1.5 1.5 0 1 1 .63.78L6.15 16.5H3V18h12.09a1.5 1.5 0 1 1 0 1H3v1h6.7l1.85 1.84a1.5 1.5 0 1 1-.52.89L9.28 21H3v6a1 1 0 0 0 1 1h23a1 1 0 0 0 1-1v-5h-5a2 2 0 0 1-2-2v-4c0-1.1.9-2 2-2h5V9a1 1 0 0 0-1-1Zm1 7h-5a1 1 0 0 0-1 1v4a1 1 0 0 0 1 1h5a1 1 0 0 0 1-1v-4a1 1 0 0 0-1-1Zm-5 2a1 1 0 0 1 1-1h1a1 1 0 0 1 1 1v2a1 1 0 0 1-1 1h-1a1 1 0 0 1-1-1v-2ZM9.5 14a.5.5 0 1 0 0-1 .5.5 0 0 0 0 1Zm7 5a.5.5 0 1 1 0-1 .5.5 0 0 1 0 1ZM13 23a.5.5 0 1 1-1 0 .5.5 0 0 1 1 0Z" />
  </symbol>
</svg>
