<svg xmlns="http://www.w3.org/2000/svg" fill="none" viewBox="0 0 225 224"><g clip-path="url(#a)"><path fill="#fff" d="M224.5 0H.5v224h224V0Z"/><path fill="#060606" d="M85.26 24.22H79.2v6.05h6.06v-6.05Zm6.05 0h-6.05v6.05h6.05v-6.05Zm6.05 0h-6.05v6.05h6.05v-6.05Zm24.22 0h-6.05v6.05h6.05v-6.05Zm6.06 0h-6.06v6.05h6.06v-6.05Zm24.21 0h-6.05v6.05h6.05v-6.05Zm-60.54 6.05h-6.05v6.05h6.05v-6.05Zm6.05 0h-6.05v6.05h6.05v-6.05Zm36.33 0h-6.05v6.05h6.05v-6.05ZM79.2 36.32h-6.05v6.06h6.05v-6.06Zm6.06 0H79.2v6.06h6.06v-6.06Zm30.27 0h-6.06v6.06h6.06v-6.06Zm12.11 0h-6.06v6.06h6.06v-6.06Zm12.1 0h-6.05v6.06h6.05v-6.06Zm6.06 0h-6.06v6.06h6.06v-6.06Z"/><path fill="#060606" d="M151.85 36.32h-6.05v6.06h6.05v-6.06ZM79.2 42.38h-6.05v6.05h6.05v-6.05Zm12.11 0h-6.05v6.05h6.05v-6.05Zm6.05 0h-6.05v6.05h6.05v-6.05Zm30.28 0h-6.06v6.05h6.06v-6.05Zm6.05 0h-6.05v6.05h6.05v-6.05Zm6.05 0h-6.05v6.05h6.05v-6.05Zm12.11 0h-6.05v6.05h6.05v-6.05ZM79.2 48.43h-6.05v6.06h6.05v-6.06Zm12.11 0h-6.05v6.06h6.05v-6.06Zm12.11 0h-6.06v6.06h6.06v-6.06Zm6.05 0h-6.05v6.06h6.05v-6.06Zm6.06 0h-6.06v6.06h6.06v-6.06Zm6.05 0h-6.05v6.06h6.05v-6.06Zm18.16 0h-6.05v6.06h6.05v-6.06Zm12.11 0h-6.05v6.06h6.05v-6.06ZM79.2 54.49h-6.05v6.05h6.05V54.5Zm6.06 0H79.2v6.05h6.06V54.5Zm6.05 0h-6.05v6.05h6.05V54.5Zm12.11 0h-6.06v6.05h6.06V54.5Zm6.05 0h-6.05v6.05h6.05V54.5Zm6.06 0h-6.06v6.05h6.06V54.5Zm6.05 0h-6.05v6.05h6.05V54.5Zm6.06 0h-6.06v6.05h6.06V54.5Zm6.05 0h-6.05v6.05h6.05V54.5Zm12.11 0h-6.06v6.05h6.06V54.5Zm-66.6 6.05h-6.05v6.05h6.05v-6.05Zm12.11 0h-6.05v6.05h6.05v-6.05Zm12.11 0h-6.06v6.05h6.06v-6.05Zm12.11 0h-6.06v6.05h6.06v-6.05Zm12.11 0h-6.06v6.05h6.06v-6.05Zm12.1 0h-6.05v6.05h6.05v-6.05Zm12.11 0h-6.05v6.05h6.05v-6.05Z"/><path fill="#060606" d="M79.2 66.6h-6.05v6.05h6.05v-6.06Zm12.11 0h-6.05v6.05h6.05v-6.06Zm12.11 0h-6.06v6.05h6.06v-6.06Zm6.05 0h-6.05v6.05h6.05v-6.06Zm12.11 0h-6.05v6.05h6.05v-6.06Zm24.22 0h-6.06v6.05h6.06v-6.06Z"/><path fill="#060606" d="M151.85 66.6h-6.05v6.05h6.05v-6.06ZM30.77 72.65h-6.05v6.05h6.05v-6.05Zm12.11 0h-6.06v6.05h6.06v-6.05Zm6.05 0h-6.05v6.05h6.05v-6.05Zm6.06 0h-6.06v6.05H55v-6.05Zm6.05 0H55v6.05h6.05v-6.05Z"/><path fill="#060606" d="M67.1 72.65h-6.06v6.05h6.05v-6.05Zm48.43 0h-6.06v6.05h6.06v-6.05Zm6.05 0h-6.05v6.05h6.05v-6.05Zm30.27 0h-6.05v6.05h6.05v-6.05Zm12.11 0h-6.06v6.05h6.06v-6.05Zm6.05 0h-6.05v6.05H170v-6.05Z"/><path fill="#060606" d="M176.07 72.65H170v6.05h6.06v-6.05Zm6.05 0h-6.05v6.05h6.05v-6.05Zm6.06 0h-6.06v6.05h6.06v-6.05ZM30.77 78.7h-6.05v6.06h6.05V78.7Zm18.16 0h-6.05v6.06h6.05V78.7Zm6.06 0h-6.06v6.06H55V78.7Zm18.16 0h-6.06v6.06h6.06V78.7Zm6.05 0h-6.05v6.06h6.05V78.7Zm6.06 0H79.2v6.06h6.06V78.7Zm12.1 0h-6.05v6.06h6.05V78.7Zm6.06 0h-6.06v6.06h6.06V78.7Zm18.16 0h-6.05v6.06h6.05V78.7Zm6.06 0h-6.06v6.06h6.06V78.7Zm36.32 0h-6.06v6.06h6.06V78.7Z"/><path fill="#060606" d="M170.01 78.7h-6.05v6.06H170V78.7Z"/><path fill="#060606" d="M176.07 78.7H170v6.06h6.06V78.7Zm6.05 0h-6.05v6.06h6.05V78.7Zm12.11 0h-6.05v6.06h6.05V78.7ZM36.82 84.76h-6.05v6.05h6.05v-6.05Zm6.06 0h-6.06v6.05h6.06v-6.05Zm18.16 0H55v6.05h6.05v-6.05Z"/><path fill="#060606" d="M67.1 84.76h-6.06v6.05h6.05v-6.05Zm24.21 0h-6.05v6.05h6.05v-6.05Zm6.05 0h-6.05v6.05h6.05v-6.05Zm6.06 0h-6.06v6.05h6.06v-6.05Zm30.27 0h-6.05v6.05h6.05v-6.05Zm12.11 0h-6.06v6.05h6.06v-6.05Zm12.1 0h-6.05v6.05h6.06v-6.05Zm12.11 0h-6.05v6.05H170v-6.05Zm12.11 0h-6.05v6.05h6.05v-6.05Zm6.06 0h-6.06v6.05h6.06v-6.05ZM30.77 90.81h-6.05v6.05h6.05v-6.05Zm18.16 0h-6.05v6.05h6.05v-6.05Zm6.06 0h-6.06v6.05H55v-6.05Zm18.16 0h-6.06v6.05h6.06v-6.05Zm6.05 0h-6.05v6.05h6.05v-6.05Zm6.06 0H79.2v6.05h6.06v-6.05Zm12.1 0h-6.05v6.05h6.05v-6.05Zm18.17 0h-6.06v6.05h6.06v-6.05Zm12.11 0h-6.06v6.05h6.06v-6.05Zm12.1 0h-6.05v6.05h6.05v-6.05Zm6.06 0h-6.06v6.05h6.06v-6.05Z"/><path fill="#060606" d="M151.85 90.81h-6.05v6.05h6.05v-6.05Zm6.05 0h-6.05v6.05h6.06v-6.05Z"/><path fill="#060606" d="M163.96 90.81h-6.06v6.05h6.06v-6.05Z"/><path fill="#060606" d="M170.01 90.81h-6.05v6.05H170v-6.05Z"/><path fill="#060606" d="M176.07 90.81H170v6.05h6.06v-6.05Zm6.05 0h-6.05v6.05h6.05v-6.05Zm18.16 0h-6.05v6.05h6.05v-6.05Zm-157.4 6.05h-6.06v6.06h6.06v-6.06Zm6.05 0h-6.05v6.06h6.05v-6.06Zm6.06 0h-6.06v6.06H55v-6.06Zm6.05 0H55v6.06h6.05v-6.06Z"/><path fill="#060606" d="M67.1 96.86h-6.06v6.06h6.05v-6.06Zm12.1 0h-6.05v6.06h6.05v-6.06Zm12.11 0h-6.05v6.06h6.05v-6.06Zm72.65 0h-6.06v6.06h6.06v-6.06Zm6.05 0h-6.05v6.06H170v-6.06Zm-139.24 6.06h-6.05v6.05h6.05v-6.05Zm12.11 0h-6.06v6.05h6.06v-6.05Zm30.27 0h-6.06v6.05h6.06v-6.05Zm6.05 0h-6.05v6.05h6.05v-6.05Zm6.06 0H79.2v6.05h6.06v-6.05Zm6.05 0h-6.05v6.05h6.05v-6.05Zm6.05 0h-6.05v6.05h6.05v-6.05Zm12.11 0h-6.05v6.05h6.05v-6.05Zm6.06 0h-6.06v6.05h6.06v-6.05Zm6.05 0h-6.05v6.05h6.05v-6.05Zm18.16 0h-6.05v6.05h6.05v-6.05Zm12.11 0h-6.05v6.05h6.05v-6.05Zm6.05 0h-6.05v6.05h6.06v-6.05Z"/><path fill="#060606" d="M163.96 102.92h-6.06v6.05h6.06v-6.05Z"/><path fill="#060606" d="M170.01 102.92h-6.05v6.05H170v-6.05Z"/><path fill="#060606" d="M176.07 102.92H170v6.05h6.06v-6.05Zm6.05 0h-6.05v6.05h6.05v-6.05Zm12.11 0h-6.05v6.05h6.05v-6.05Zm-151.35 6.05h-6.06v6.06h6.06v-6.06Zm6.05 0h-6.05v6.06h6.05v-6.06Zm6.06 0h-6.06v6.06H55v-6.06Zm12.11 0h-6.06v6.06h6.05v-6.06Zm12.1 0h-6.05v6.06h6.05v-6.06Zm6.06 0H79.2v6.06h6.06v-6.06Zm12.1 0h-6.05v6.06h6.05v-6.06Zm12.11 0h-6.05v6.06h6.05v-6.06Zm6.06 0h-6.06v6.06h6.06v-6.06Zm6.05 0h-6.05v6.06h6.05v-6.06Zm12.11 0h-6.05v6.06h6.05v-6.06Zm18.16 0h-6.05v6.06h6.05v-6.06Zm18.16 0h-6.05v6.06H170v-6.06Zm12.11 0h-6.05v6.06h6.05v-6.06Zm6.06 0h-6.06v6.06h6.06v-6.06Z"/><path fill="#060606" d="M194.23 108.97h-6.05v6.06h6.05v-6.06Zm6.05 0h-6.05v6.06h6.05v-6.06Zm-169.51 6.06h-6.05v6.05h6.05v-6.05Zm24.22 0h-6.06v6.05H55v-6.05Zm6.05 0H55v6.05h6.05v-6.05Zm12.11 0h-6.06v6.05h6.06v-6.05Zm12.11 0H79.2v6.05h6.06v-6.05Zm12.1 0h-6.05v6.05h6.05v-6.05Zm12.11 0h-6.05v6.05h6.05v-6.05Zm12.11 0h-6.05v6.05h6.05v-6.05Zm18.16 0h-6.05v6.05h6.05v-6.05Zm6.06 0h-6.06v6.05h6.06v-6.05Z"/><path fill="#060606" d="M151.85 115.03h-6.05v6.05h6.05v-6.05Zm12.11 0h-6.06v6.05h6.06v-6.05Zm6.05 0h-6.05v6.05H170v-6.05Z"/><path fill="#060606" d="M176.07 115.03H170v6.05h6.06v-6.05Zm18.16 0h-6.05v6.05h6.05v-6.05Zm6.05 0h-6.05v6.05h6.05v-6.05Zm-163.46 6.05h-6.05v6.06h6.05v-6.06Zm12.11 0h-6.05v6.06h6.05v-6.06Zm6.06 0h-6.06v6.06H55v-6.06Zm6.05 0H55v6.06h6.05v-6.06Z"/><path fill="#060606" d="M67.1 121.08h-6.06v6.06h6.05v-6.06Z"/><path fill="#060606" d="M73.15 121.08h-6.06v6.06h6.06v-6.06Zm6.05 0h-6.05v6.06h6.05v-6.06Zm24.22 0h-6.06v6.06h6.06v-6.06Zm12.11 0h-6.06v6.06h6.06v-6.06Zm6.05 0h-6.05v6.06h6.05v-6.06Zm6.06 0h-6.06v6.06h6.06v-6.06Zm42.37 0h-6.05v6.06H170v-6.06Zm-139.24 6.06h-6.05v6.05h6.05v-6.05Zm24.22 0h-6.06v6.05H55v-6.05Zm18.16 0h-6.06v6.05h6.06v-6.05Zm6.05 0h-6.05v6.05h6.05v-6.05Zm6.06 0H79.2v6.05h6.06v-6.05Zm42.38 0h-6.06v6.05h6.06v-6.05Zm12.1 0h-6.05v6.05h6.05v-6.05Zm12.11 0h-6.05v6.05h6.05v-6.05Zm12.11 0h-6.06v6.05h6.06v-6.05Zm6.05 0h-6.05v6.05H170v-6.05Z"/><path fill="#060606" d="M176.07 127.14H170v6.05h6.06v-6.05Zm6.05 0h-6.05v6.05h6.05v-6.05Zm18.16 0h-6.05v6.05h6.05v-6.05Zm-169.51 6.05h-6.05v6.05h6.05v-6.05Zm24.22 0h-6.06v6.05H55v-6.05Zm12.11 0h-6.06v6.05h6.05v-6.05Z"/><path fill="#060606" d="M73.15 133.19h-6.06v6.05h6.06v-6.05Zm6.05 0h-6.05v6.05h6.05v-6.05Zm6.06 0H79.2v6.05h6.06v-6.05Zm6.05 0h-6.05v6.05h6.05v-6.05Zm12.11 0h-6.06v6.05h6.06v-6.05Zm30.27 0h-6.05v6.05h6.05v-6.05Zm36.32 0h-6.05v6.05H170v-6.05Zm12.11 0h-6.05v6.05h6.05v-6.05Zm6.06 0h-6.06v6.05h6.06v-6.05Zm12.1 0h-6.05v6.05h6.05v-6.05Zm-169.51 6.05h-6.05v6.06h6.05v-6.06Zm12.11 0h-6.06v6.06h6.06v-6.06Zm42.38 0H79.2v6.06h6.06v-6.06Zm12.1 0h-6.05v6.06h6.05v-6.06Zm18.17 0h-6.06v6.06h6.06v-6.06Zm18.16 0h-6.05v6.06h6.05v-6.06Zm12.11 0h-6.06v6.06h6.06v-6.06Z"/><path fill="#060606" d="M151.85 139.24h-6.05v6.06h6.05v-6.06Zm6.05 0h-6.05v6.06h6.06v-6.06Z"/><path fill="#060606" d="M163.96 139.24h-6.06v6.06h6.06v-6.06Z"/><path fill="#060606" d="M170.01 139.24h-6.05v6.06H170v-6.06Z"/><path fill="#060606" d="M176.07 139.24H170v6.06h6.06v-6.06Zm-145.3 6.06h-6.05v6.05h6.05v-6.05Zm12.11 0h-6.06v6.05h6.06v-6.05Zm6.05 0h-6.05v6.05h6.05v-6.05Zm18.17 0h-6.06v6.05h6.05v-6.05Z"/><path fill="#060606" d="M73.15 145.3h-6.06v6.05h6.06v-6.05Zm24.21 0h-6.05v6.05h6.05v-6.05Zm6.06 0h-6.06v6.05h6.06v-6.05Zm18.16 0h-6.05v6.05h6.05v-6.05Zm6.06 0h-6.06v6.05h6.06v-6.05Zm12.1 0h-6.05v6.05h6.05v-6.05Zm12.11 0h-6.05v6.05h6.05v-6.05Zm6.05 0h-6.05v6.05h6.06v-6.05Z"/><path fill="#060606" d="M163.96 145.3h-6.06v6.05h6.06v-6.05Z"/><path fill="#060606" d="M170.01 145.3h-6.05v6.05H170v-6.05Z"/><path fill="#060606" d="M176.07 145.3H170v6.05h6.06v-6.05Zm6.05 0h-6.05v6.05h6.05v-6.05Zm6.06 0h-6.06v6.05h6.06v-6.05Z"/><path fill="#060606" d="M194.23 145.3h-6.05v6.05h6.05v-6.05ZM79.2 151.35h-6.05v6.06h6.05v-6.06Zm6.06 0H79.2v6.06h6.06v-6.06Zm6.05 0h-6.05v6.06h6.05v-6.06Zm12.11 0h-6.06v6.06h6.06v-6.06Zm6.05 0h-6.05v6.06h6.05v-6.06Zm6.06 0h-6.06v6.06h6.06v-6.06Zm6.05 0h-6.05v6.06h6.05v-6.06Zm6.06 0h-6.06v6.06h6.06v-6.06Zm24.21 0h-6.05v6.06h6.05v-6.06Zm24.22 0H170v6.06h6.06v-6.06Z"/><path fill="#060606" d="M194.23 151.35h-6.05v6.06h6.05v-6.06ZM85.26 157.4H79.2v6.06h6.06v-6.06Zm6.05 0h-6.05v6.06h6.05v-6.06Zm6.05 0h-6.05v6.06h6.05v-6.06Zm12.11 0h-6.05v6.06h6.05v-6.06Zm6.06 0h-6.06v6.06h6.06v-6.06Zm18.16 0h-6.05v6.06h6.05v-6.06Zm6.05 0h-6.05v6.06h6.05v-6.06Zm12.11 0h-6.05v6.06h6.05v-6.06Zm12.11 0h-6.06v6.06h6.06v-6.06Zm12.11 0H170v6.06h6.06v-6.06Zm6.05 0h-6.05v6.06h6.05v-6.06Z"/><path fill="#060606" d="M188.18 157.4h-6.06v6.06h6.06v-6.06ZM79.2 163.46h-6.05v6.05h6.05v-6.05Zm6.06 0H79.2v6.05h6.06v-6.05Zm12.1 0h-6.05v6.05h6.05v-6.05Zm6.06 0h-6.06v6.05h6.06v-6.05Zm6.05 0h-6.05v6.05h6.05v-6.05Zm18.17 0h-6.06v6.05h6.06v-6.05Zm6.05 0h-6.05v6.05h6.05v-6.05Zm6.05 0h-6.05v6.05h6.05v-6.05Zm6.06 0h-6.06v6.05h6.06v-6.05Z"/><path fill="#060606" d="M151.85 163.46h-6.05v6.05h6.05v-6.05Zm24.22 0H170v6.05h6.06v-6.05Zm12.11 0h-6.06v6.05h6.06v-6.05Z"/><path fill="#060606" d="M194.23 163.46h-6.05v6.05h6.05v-6.05Zm6.05 0h-6.05v6.05h6.05v-6.05ZM79.2 169.51h-6.05v6.06h6.05v-6.06Zm6.06 0H79.2v6.06h6.06v-6.06Zm12.1 0h-6.05v6.06h6.05v-6.06Zm6.06 0h-6.06v6.06h6.06v-6.06Zm12.11 0h-6.06v6.06h6.06v-6.06Zm6.05 0h-6.05v6.06h6.05v-6.06Zm6.06 0h-6.06v6.06h6.06v-6.06Zm6.05 0h-6.05v6.06h6.05v-6.06Zm12.11 0h-6.06v6.06h6.06v-6.06Z"/><path fill="#060606" d="M151.85 169.51h-6.05v6.06h6.05v-6.06Zm6.05 0h-6.05v6.06h6.06v-6.06Z"/><path fill="#060606" d="M163.96 169.51h-6.06v6.06h6.06v-6.06Z"/><path fill="#060606" d="M170.01 169.51h-6.05v6.06H170v-6.06Z"/><path fill="#060606" d="M176.07 169.51H170v6.06h6.06v-6.06Zm12.11 0h-6.06v6.06h6.06v-6.06Z"/><path fill="#060606" d="M194.23 169.51h-6.05v6.06h6.05v-6.06Zm6.05 0h-6.05v6.06h6.05v-6.06ZM79.2 175.57h-6.05v6.05h6.05v-6.05Zm12.11 0h-6.05v6.05h6.05v-6.05Zm6.05 0h-6.05v6.05h6.05v-6.05Zm12.11 0h-6.05v6.05h6.05v-6.05Zm18.17 0h-6.06v6.05h6.06v-6.05Zm12.1 0h-6.05v6.05h6.05v-6.05Zm12.11 0h-6.05v6.05h6.05v-6.05Zm12.11 0h-6.06v6.05h6.06v-6.05Z"/><path fill="#060606" d="M170.01 175.57h-6.05v6.05H170v-6.05Zm-90.81 6.05h-6.05v6.06h6.05v-6.06Zm12.11 0h-6.05v6.06h6.05v-6.06Zm6.05 0h-6.05v6.06h6.05v-6.06Zm18.17 0h-6.06v6.06h6.06v-6.06Zm18.16 0h-6.05v6.06h6.05v-6.06Zm12.11 0h-6.06v6.06h6.06v-6.06Zm18.16 0h-6.06v6.06h6.06v-6.06Z"/><path fill="#060606" d="M170.01 181.62h-6.05v6.06H170v-6.06Zm18.17 0h-6.06v6.06h6.06v-6.06Z"/><path fill="#060606" d="M194.23 181.62h-6.05v6.06h6.05v-6.06Zm-78.7 6.06h-6.06v6.05h6.06v-6.05Zm12.11 0h-6.06v6.05h6.06v-6.05Zm12.1 0h-6.05v6.05h6.05v-6.05Zm12.11 0h-6.05v6.05h6.05v-6.05Zm30.27 0h-6.05v6.05h6.05v-6.05Zm6.06 0h-6.06v6.05h6.06v-6.05Zm12.1 0h-6.05v6.05h6.05v-6.05ZM79.2 193.73h-6.05v6.05h6.05v-6.05Zm6.06 0H79.2v6.05h6.06v-6.05Zm6.05 0h-6.05v6.05h6.05v-6.05Zm30.27 0h-6.05v6.05h6.05v-6.05Z"/><path fill="#060606" d="M127.64 193.73h-6.06v6.05h6.06v-6.05Zm6.05 0h-6.05v6.05h6.05v-6.05Zm6.05 0h-6.05v6.05h6.05v-6.05Zm24.22 0h-6.06v6.05h6.06v-6.05Zm12.11 0H170v6.05h6.06v-6.05Zm6.05 0h-6.05v6.05h6.05v-6.05Zm6.06 0h-6.06v6.05h6.06v-6.05ZM67.1 24.22H24.71v42.37h42.37V24.22Z"/><path fill="#fff" d="M61.04 30.27H30.77v30.27h30.27V30.27Z"/><path fill="#060606" d="M200.28 24.22H157.9v42.37h42.38V24.22Z"/><path fill="#fff" d="M194.23 30.27h-30.27v30.27h30.27V30.27Z"/><path fill="#060606" d="M54.99 36.32H36.82V54.5H55V36.32Zm133.19 0H170V54.5h18.17V36.32ZM67.1 157.4H24.71v42.38h42.37V157.4Z"/><path fill="#fff" d="M61.04 163.46H30.77v30.27h30.27v-30.27Z"/><path fill="#060606" d="M54.99 169.51H36.82v18.17H55V169.5Z"/><path fill="url(#b)" d="M1 0h224v224H1z" style="mix-blend-mode:lighten"/></g><defs><linearGradient id="b" x1="113" x2="113" y1="0" y2="224" gradientUnits="userSpaceOnUse"><stop stop-color="#8059EE"/><stop offset="1" stop-color="#493388"/></linearGradient><clipPath id="a"><path fill="#fff" d="M.5 0h224v224H.5z"/></clipPath></defs></svg>