<svg xmlns="http://www.w3.org/2000/svg" style="display: none;">
  <symbol id="down" viewBox="0 0 10 6" stroke="none">
    <path
      d="M5 6a.5.5 0 0 0 .38-.17L9.84.96c.1-.1.16-.24.16-.4C10 .25 9.78 0 9.48 0a.53.53 0 0 0-.38.17L5 4.63.9.17A.54.54 0 0 0 .52 0C.22 0 0 .25 0 .56c0 .16.05.3.15.4l4.47 4.87c.1.11.24.17.38.17Z" />
  </symbol>
  <symbol id="like" viewBox="0 0 19 19" stroke="none">
    <path
      d="M11.44 3.18A2.51 2.51 0 0 0 8.93.67H7.88c-.58 0-1.09.37-1.28.92L4.9 6.72H2.68c-1.11 0-2.02.91-2.02 2.02v7.4c0 1.12.9 2.03 2.02 2.03h10.13c1.48 0 2.78-.96 3.21-2.38l2.04-6.6a2.43 2.43 0 0 0-2.32-3.14h-4.83l.48-2.38c.02-.16.04-.32.04-.5ZM2 16.15v-7.4c0-.38.3-.68.68-.68H4.7v8.75H2.69a.68.68 0 0 1-.68-.67ZM15.74 7.4a1.08 1.08 0 0 1 1.03 1.4l-2.03 6.6a2 2 0 0 1-1.92 1.42H6.05V7.51L7.88 2h1.05a1.17 1.17 0 0 1 1.14 1.4l-.64 3.18c-.04.2.01.4.14.56.13.16.32.25.52.25h5.65Z" />
  </symbol>
  <symbol id="message" viewBox="0 0 20 18" stroke="none">
    <path
      d="M14.32.38c-2.87-.5-5.77-.5-8.64 0A6.8 6.8 0 0 0 0 7.05v1.44a6.78 6.78 0 0 0 3.27 5.77l-1.34 2.33a.7.7 0 0 0 .08.82.72.72 0 0 0 .81.18l5.24-2.13c2.08.16 4.19.06 6.26-.3A6.8 6.8 0 0 0 20 8.5V7.05c0-3.3-2.4-6.1-5.68-6.67Zm4.25 8.1a5.4 5.4 0 0 1-4.5 5.3c-2 .34-4.04.43-6.06.26a.7.7 0 0 0-.33.05L4.2 15.5l.68-1.17a.7.7 0 0 0-.32-.99 5.37 5.37 0 0 1-3.13-4.85V7.05c0-2.6 1.9-4.83 4.5-5.28a23.71 23.71 0 0 1 8.14 0c2.6.45 4.5 2.67 4.5 5.28v1.44Z" />
    <path d="M6.68 7.84c0 1.41-2.14 1.41-2.14 0s2.14-1.41 2.14 0Zm4.39 0c0 1.41-2.14 1.41-2.14 0s2.14-1.41 2.14 0Zm4.39 0c0 1.41-2.15 1.41-2.15 0s2.15-1.41 2.15 0Z" />
  </symbol>
  <symbol id="pin" viewBox="0 0 12 16" fill="none">
    <path d="M11.5 6.1c0 2.3-1.4 4.6-2.9 6.5A24.9 24.9 0 0 1 6 15.3a22.5 22.5 0 0 1-2.6-2.7C1.9 10.7.5 8.4.5 6 .5 3 3 .5 6 .5s5.5 2.5 5.5 5.6Z" />
    <circle cx="6" cy="6" r="2.5" />
  </symbol>
  <symbol id="remove" viewBox="0 0 16 16" stroke="none">
    <path
      d="M1.53.7a.83.83 0 0 0-.59.24.82.82 0 0 0 0 1.17l5.89 5.9-5.89 5.88a.82.82 0 0 0 0 1.17c.33.33.85.33 1.17 0l5.9-5.89 5.88 5.9c.33.32.85.32 1.17 0a.82.82 0 0 0 0-1.18L9.17 8l5.9-5.89a.82.82 0 0 0 0-1.17.83.83 0 0 0-.6-.24.83.83 0 0 0-.58.24L8 6.84 2.11.93A.83.83 0 0 0 1.53.7Z" />
  </symbol>
  <symbol id="zodiac" viewBox="0 0 24 24">
    <circle cx="12" cy="12" r="11.5" stroke="#060606" fill="none" />
    <path fill="#060606" stroke="#060606" stroke-width=".4"
      d="M7 14.79c0 .95.25 1.89.72 2.7a5.09 5.09 0 0 0 1.97 1.92 4.84 4.84 0 0 0 5.18-.36 5.17 5.17 0 0 0 1.71-2.17 5.4 5.4 0 0 0-.7-5.36A5 5 0 0 0 13.7 9.9 5.04 5.04 0 0 0 16.1 8c.59-.88.9-1.93.91-3h-.6c0 1.21-.46 2.38-1.29 3.24A4.32 4.32 0 0 1 12 9.58a4.32 4.32 0 0 1-3.11-1.34A4.68 4.68 0 0 1 7.6 5H7c0 1.07.32 2.11.91 2.99a5.03 5.03 0 0 0 2.4 1.9 5.04 5.04 0 0 0-2.4 1.9 5.4 5.4 0 0 0-.91 3Zm5-4.58a4.4 4.4 0 0 1 4.06 2.83 4.75 4.75 0 0 1-.95 4.99 4.24 4.24 0 0 1-4.8 1 4.56 4.56 0 0 1-1.97-1.7 4.72 4.72 0 0 1 .55-5.78A4.32 4.32 0 0 1 12 10.21Z" />
  </symbol>
</svg>
