<svg xmlns="http://www.w3.org/2000/svg" style="display: none;">
  <symbol id="card" viewBox="0 0 16 16" stroke="none">
    <path fill-rule="evenodd" clip-rule="evenodd"
      d="M.76 5.82a1 1 0 0 1 .7-1.22l10.6-2.84a1 1 0 0 1 1.23.7l.81 3.04H2.5a1.5 1.5 0 0 0-1.48 1.28l-.26-.96Zm1.74.68H14c.28 0 .5.22.5.5v1H2V7c0-.28.22-.5.5-.5Zm12.5 3V7a1 1 0 0 0-1-1H2.5a1 1 0 0 0-1 1v6.5a1 1 0 0 0 1 1H14a1 1 0 0 0 1-1v-4Zm-13 4v-4h12.5v4a.5.5 0 0 1-.5.5H2.5a.5.5 0 0 1-.5-.5Zm9.5-2.5a1 1 0 1 0 0 2h1a1 1 0 1 0 0-2h-1Z" />
  </symbol>
  <symbol id="down" viewBox="0 0 10 6" stroke="none">
    <path
      d="M5 6a.5.5 0 0 0 .38-.17L9.84.96c.1-.1.16-.24.16-.4C10 .25 9.78 0 9.48 0a.53.53 0 0 0-.38.17L5 4.63.9.17A.54.54 0 0 0 .52 0C.22 0 0 .25 0 .56c0 .16.05.3.15.4l4.47 4.87c.1.11.24.17.38.17Z" />
  </symbol>
  <symbol id="eye" viewBox="0 0 16 16" stroke="none">
    <path fill-rule="evenodd" clip-rule="evenodd"
      d="m.942 8.88.326-.38-.326.38h.001l.003.003.008.007.029.024c.025.02.06.05.107.086.092.073.227.175.398.298.343.244.838.569 1.449.893 1.216.647 2.924 1.309 4.83 1.309 1.907 0 3.615-.662 4.831-1.309a13.145 13.145 0 0 0 1.449-.893 10.164 10.164 0 0 0 .505-.384l.03-.024.007-.007.003-.002V8.88h.001l-.325-.38.325.38a.5.5 0 0 0 0-.76l-.325.38.325-.38h-.001l-.003-.003-.008-.007-.029-.024c-.025-.02-.06-.05-.107-.086a10.164 10.164 0 0 0-.398-.298 13.283 13.283 0 0 0-1.449-.894C11.382 6.162 9.674 5.5 7.768 5.5c-1.907 0-3.615.662-4.831 1.308-.611.325-1.106.65-1.449.894a10.183 10.183 0 0 0-.505.384l-.03.024-.007.007-.003.002v.001H.941l.326.38-.326-.38a.5.5 0 0 0 0 .76Zm4.274-1.96c-.672.217-1.285.492-1.81.772-.552.293-1 .586-1.314.808.314.222.762.515 1.314.808.525.28 1.138.555 1.81.771-.284-.458-.448-1-.448-1.579 0-.58.164-1.12.448-1.58Zm2.552 3.58a2 2 0 1 1 0-4 2 2 0 0 1 0 4Zm2.55-3.58a11.13 11.13 0 0 1 1.811.772c.552.293 1 .586 1.314.808-.314.222-.762.515-1.314.808a11.04 11.04 0 0 1-1.81.771c.284-.458.449-1 .449-1.579 0-.58-.165-1.12-.45-1.58Z" />
  </symbol>
  <symbol id="pen" viewBox="0 0 16 16" fill="none">
    <path stroke-linejoin="round" d="m8.97 3.78-3.96 6.86-.1 2.32 1.96-1.24 3.96-6.87M8.97 3.78 10 2l1.86 1.07-1.03 1.78M8.97 3.78l1.86 1.07" />
  </symbol>
  <symbol id="pin" viewBox="0 0 12 16" fill="none">
    <path d="M11.5 6.1c0 2.3-1.4 4.6-2.9 6.5A24.9 24.9 0 0 1 6 15.3a22.5 22.5 0 0 1-2.6-2.7C1.9 10.7.5 8.4.5 6 .5 3 3 .5 6 .5s5.5 2.5 5.5 5.6Z" />
    <circle cx="6" cy="6" r="2.5" />
  </symbol>
  <symbol id="plus" viewBox="0 0 11 10" stroke="none">
    <rect width="1" height="10" x="4.75" rx=".5" />
    <rect width="1" height="10" x="10.25" y="4.5" rx=".5" transform="rotate(90 10.25 4.5)" />
  </symbol>
  <symbol id="remove" viewBox="0 0 16 16" stroke="none">
    <path
      d="M1.53.7a.83.83 0 0 0-.59.24.82.82 0 0 0 0 1.17l5.89 5.9-5.89 5.88a.82.82 0 0 0 0 1.17c.33.33.85.33 1.17 0l5.9-5.89 5.88 5.9c.33.32.85.32 1.17 0a.82.82 0 0 0 0-1.18L9.17 8l5.9-5.89a.82.82 0 0 0 0-1.17.83.83 0 0 0-.6-.24.83.83 0 0 0-.58.24L8 6.84 2.11.93A.83.83 0 0 0 1.53.7Z" />
  </symbol>
  <symbol id="send" viewBox="0 0 12 14" stroke="none">
    <path fill-rule="evenodd" clip-rule="evenodd"
      d="M6.352 1.099a.498.498 0 0 0-.704 0L2.76 3.987a.498.498 0 0 0 .704.704l2.038-2.038v7.902a.498.498 0 0 0 .996 0V2.654l2.038 2.038a.498.498 0 1 0 .704-.704L6.352 1.099ZM.498 5.922A.498.498 0 0 0 0 6.42v6.13c0 .274.223.497.498.497h11.004A.498.498 0 0 0 12 12.55V6.42a.498.498 0 0 0-.498-.498H9.457a.498.498 0 0 0 0 .996h1.547v5.133H.996V6.918h1.547a.498.498 0 0 0 0-.996H.498Z" />
  </symbol>
  <symbol id="support" viewBox="0 0 17 16" stroke="none">
    <path fill-rule="evenodd" clip-rule="evenodd"
      d="m5.82 13.553 2.75-1.718h4.37c.61 0 1.104-.495 1.104-1.104V4.104c0-.61-.495-1.104-1.105-1.104H4.104C3.494 3 3 3.494 3 4.104v6.627c0 .61.494 1.104 1.104 1.104H5.21v1.379a.4.4 0 0 0 .612.34Zm2.432-2.822-1.94 1.212v-1.212H4.104V4.104h8.834v6.627H8.252ZM6.314 9.074a.552.552 0 1 1 0-1.104h2.76a.552.552 0 0 1 0 1.104h-2.76Zm-.552-2.76c0 .304.247.551.552.551h3.865a.552.552 0 1 0 0-1.104H6.314a.552.552 0 0 0-.552.552Z" />
  </symbol>
  <symbol id="zodiac" viewBox="0 0 24 24">
    <circle cx="12" cy="12" r="11.5" fill="none" />
    <path stroke-width=".4"
      d="M7 14.79c0 .95.25 1.89.72 2.7a5.09 5.09 0 0 0 1.97 1.92 4.84 4.84 0 0 0 5.18-.36 5.17 5.17 0 0 0 1.71-2.17 5.4 5.4 0 0 0-.7-5.36A5 5 0 0 0 13.7 9.9 5.04 5.04 0 0 0 16.1 8c.59-.88.9-1.93.91-3h-.6c0 1.21-.46 2.38-1.29 3.24A4.32 4.32 0 0 1 12 9.58a4.32 4.32 0 0 1-3.11-1.34A4.68 4.68 0 0 1 7.6 5H7c0 1.07.32 2.11.91 2.99a5.03 5.03 0 0 0 2.4 1.9 5.04 5.04 0 0 0-2.4 1.9 5.4 5.4 0 0 0-.91 3Zm5-4.58a4.4 4.4 0 0 1 4.06 2.83 4.75 4.75 0 0 1-.95 4.99 4.24 4.24 0 0 1-4.8 1 4.56 4.56 0 0 1-1.97-1.7 4.72 4.72 0 0 1 .55-5.78A4.32 4.32 0 0 1 12 10.21Z" />
  </symbol>
</svg>
