<svg xmlns="http://www.w3.org/2000/svg" fill="none" viewBox="0 0 24 24"><mask id="a" width="24" height="24" x="0" y="0" maskUnits="userSpaceOnUse" style="mask-type:alpha"><circle cx="12" cy="12" r="12" fill="#8059EE"/></mask><g mask="url(#a)" opacity=".5"><path fill="#0089CD" d="M-4.36-1h32.01c.9 0 1.64.75 1.64 1.66v21.68c0 .91-.73 1.66-1.64 1.66h-32C-5.27 24-6 23.25-6 22.34V.66C-6-.25-5.26-1-4.36-1Z"/><path fill="#E6E7E8" d="M29.3.66c0-.42-.17-.81-.42-1.1L-6 19.95v2.39c0 .7.43 1.3 1.03 1.54L29.3 3.85V.66Z"/><path fill="#E6E7E8" d="M14.63-1H8.67v25h5.96V-1Z"/><path fill="#E6E7E8" d="M29.3 8.49H-6v6.02h35.3V8.5Z"/><path fill="#E6E7E8" d="M29.3 22.35v-2.82L-5.3-.68c-.42.3-.7.8-.7 1.36v2.76l34.63 20.24c.4-.3.66-.79.66-1.33Z"/><path fill="#DA2128" d="M19.41 14.57h-2.73l12.61 7.47v-1.7l-9.88-5.77ZM-6 1.07V2.8l9.83 5.75h2.94L-6 1.07Zm35.3.8V.67c0-.17-.03-.33-.08-.48L15.03 8.5h2.94L29.3 1.87ZM-5.64 23.43l14.35-8.4H5.77L-6 21.94v.46c0 .4.13.75.35 1.03ZM13.85-1h-4.4v25h4.4V-1Z"/><path fill="#DA2128" d="M29.3 9.27H-6v4.46h35.3V9.27Z"/></g></svg>