<svg xmlns="http://www.w3.org/2000/svg" style="display: none;">
  <symbol id="back" viewBox="0 0 6 10" stroke="none">
    <path
      d="M0 5c0 .14.06.27.17.38l4.87 4.46c.1.1.24.16.4.16.31 0 .56-.22.56-.52a.53.53 0 0 0-.17-.38L1.37 5 5.83.9C5.93.8 6 .67 6 .52 6 .22 5.75 0 5.44 0c-.16 0-.3.05-.4.15L.17 4.62A.5.5 0 0 0 0 5Z" />
  </symbol>
  <symbol id="send" viewBox="0 0 12 14" stroke="none">
    <path fill-rule="evenodd" clip-rule="evenodd"
      d="M6.352 1.099a.498.498 0 0 0-.704 0L2.76 3.987a.498.498 0 0 0 .704.704l2.038-2.038v7.902a.498.498 0 0 0 .996 0V2.654l2.038 2.038a.498.498 0 1 0 .704-.704L6.352 1.099ZM.498 5.922A.498.498 0 0 0 0 6.42v6.13c0 .274.223.497.498.497h11.004A.498.498 0 0 0 12 12.55V6.42a.498.498 0 0 0-.498-.498H9.457a.498.498 0 0 0 0 .996h1.547v5.133H.996V6.918h1.547a.498.498 0 0 0 0-.996H.498Z" />
  </symbol>
</svg>
