<svg xmlns="http://www.w3.org/2000/svg" fill="none" viewBox="0 0 24 24"><mask id="a" width="24" height="24" x="0" y="0" maskUnits="userSpaceOnUse" style="mask-type:alpha"><rect width="24" height="24" fill="#A3D0AA" rx="12"/></mask><g mask="url(#a)"><rect width="23" height="23" x=".5" y=".5" stroke="#060606" rx="11.5"/><path fill="#060606" d="M12.03 1.78v-.5h-.25l-.15.2.4.3ZM8.61 8.92l.1.5.31-.07.08-.31-.49-.12Zm3.5-7.14.4-.3-.14-.2h-.25v.5Zm3.46 7.29-.49.1.07.31.3.07.12-.48Zm7.1 3.4h.5v-.25l-.2-.15-.3.4Zm0 .09.3.4.2-.15v-.25h-.5Zm-7.03 3.39-.12-.49-.3.08-.07.3.5.11Zm-3.52 7.16v.5h.21l.15-.16-.36-.34Zm-.09 0-.36.34.14.16h.22v-.5Zm-3.5-7.01.5-.11-.08-.32-.31-.06-.1.49Zm-7.2-3.54h-.5v.22l.16.15.34-.37Zm0-.08L1 12.1l-.16.15v.22h.5Zm10.3-11a20.3 20.3 0 0 0-3.5 7.33l.97.23a19.3 19.3 0 0 1 3.34-6.97l-.81-.59Zm.49-.2h-.09v1h.09v-1Zm3.94 7.68a20.22 20.22 0 0 0-3.54-7.48l-.8.6a19.23 19.23 0 0 1 3.36 7.1l.98-.22Zm6.9 3.11a20.32 20.32 0 0 0-7.27-3.49l-.24.97c2.19.53 4.52 1.57 6.92 3.33l.6-.8Zm.2.49v-.08h-1v.08h1Zm-7.4 3.88c2.3-.57 4.73-1.66 7.2-3.48l-.59-.8a19.36 19.36 0 0 1-6.85 3.3l.24.98Zm-3.28 7.01a15.96 15.96 0 0 0 3.65-7.4l-.98-.2a14.96 14.96 0 0 1-3.4 6.92l.73.68Zm-.45.16h.09v-1h-.09v1Zm-3.98-7.4c.7 3.24 2.27 5.79 3.62 7.24l.73-.68A14.93 14.93 0 0 1 9.02 16l-.97.21ZM.99 12.92a15.97 15.97 0 0 0 7.44 3.66l.2-.98a14.97 14.97 0 0 1-6.96-3.42l-.68.74Zm-.16-.45v.08h1v-.08h-1Zm7.68-4.05A15.98 15.98 0 0 0 1 12.11l.68.73a14.99 14.99 0 0 1 7.04-3.43l-.2-.98Z"/></g></svg>