<svg xmlns="http://www.w3.org/2000/svg" fill="none" viewBox="0 0 24 24"><mask id="a" width="24" height="24" x="0" y="0" maskUnits="userSpaceOnUse" style="mask-type:alpha"><rect width="24" height="24" fill="#A3D0AA" rx="12"/></mask><g mask="url(#a)"><rect width="23" height="23" x=".5" y=".5" fill="#000" stroke="#060606" rx="11.5"/><path fill="#F0F0F0" d="M12.032 1.778v-.5h-.253l-.15.204.403.296Zm-3.42 7.146.098.49.314-.063.074-.311-.487-.116Zm3.503-7.146.403-.296-.15-.204h-.253v.5Zm3.454 7.29-.488.11.07.303.3.073.118-.486Zm7.098 3.408h.5v-.253l-.204-.15-.296.403Zm0 .084.296.403.204-.15v-.253h-.5Zm-7.024 3.39-.119-.485-.306.075-.064.309.49.101Zm-3.528 7.161v.5h.218l.148-.16-.366-.34Zm-.083 0-.367.34.149.16h.218v-.5Zm-3.498-7.015.489-.106-.07-.318-.318-.066-.1.49Zm-7.2-3.536h-.5v.218l.16.148.34-.366Zm0-.084-.34-.366-.16.148v.218h.5ZM11.629 1.482C9.779 4 8.68 6.47 8.125 8.809l.973.23c.523-2.2 1.562-4.548 3.337-6.965l-.806-.592Zm.486-.204h-.083v1h.083v-1Zm3.941 7.678c-.544-2.382-1.65-4.903-3.538-7.474l-.806.592c1.812 2.467 2.858 4.864 3.37 7.105l.974-.223Zm6.907 3.117c-2.5-1.835-4.953-2.932-7.277-3.492l-.234.973c2.187.526 4.52 1.563 6.92 3.325l.59-.806Zm.204.487v-.084h-1v.084h1Zm-7.404 3.876c2.301-.565 4.727-1.658 7.2-3.473l-.592-.806c-2.373 1.742-4.68 2.776-6.847 3.308l.239.97ZM12.48 23.45c1.371-1.475 2.963-4.084 3.652-7.399l-.98-.204c-.65 3.129-2.152 5.575-3.404 6.923l.732.68Zm-.45.16h.084v-1h-.083v1Zm-3.985-7.409c.705 3.243 2.27 5.796 3.62 7.25l.732-.681c-1.233-1.327-2.71-3.72-3.375-6.78l-.977.212ZM.993 12.927c1.482 1.376 4.107 2.976 7.44 3.66l.202-.98c-3.147-.645-5.608-2.155-6.961-3.413l-.68.733Zm-.16-.45v.084h1v-.084h-1Zm7.68-4.042c-3.372.675-6.027 2.289-7.52 3.676l.681.733c1.364-1.268 3.853-2.792 7.036-3.429l-.197-.98Z"/></g></svg>