<svg xmlns="http://www.w3.org/2000/svg" style="display: none;">
  <symbol id="check" viewBox="0 0 17 15" fill="none">
    <path stroke-width="2" d="M1 6.5 6.7 13 16 1" />
  </symbol>
  <symbol id="filter" viewBox="0 0 16 16" stroke="none">
    <path
      d="M15.4 7.43h-1.47c-.33 0-.6.26-.6.57 0 .31.27.57.6.57h1.48c.32 0 .6-.26.6-.57a.58.58 0 0 0-.6-.57ZM.6 8.57h6.9a2.37 2.37 0 0 0 2.28 1.72c1.3 0 2.37-1.03 2.37-2.29a2.34 2.34 0 0 0-2.37-2.29c-1.1 0-2.02.75-2.28 1.72H.6c-.33 0-.6.26-.6.57 0 .31.27.57.6.57Zm9.18-1.71c.65 0 1.18.51 1.18 1.14 0 .63-.53 1.14-1.18 1.14-.65 0-1.19-.51-1.19-1.14 0-.63.54-1.14 1.19-1.14Zm5.62 6.28H8.5a2.37 2.37 0 0 0-2.28-1.71 2.34 2.34 0 0 0-2.37 2.28A2.34 2.34 0 0 0 6.22 16c1.1 0 2.02-.74 2.28-1.71h6.9a.6.6 0 0 0 .6-.58.58.58 0 0 0-.6-.57Zm-9.18 1.72c-.65 0-1.18-.52-1.18-1.15 0-.62.53-1.14 1.18-1.14.65 0 1.19.52 1.19 1.14 0 .63-.54 1.15-1.19 1.15Zm-4.15-1.72H.6a.59.59 0 0 0-.59.57c0 .32.27.58.6.58h1.47a.6.6 0 0 0 .6-.58.58.58 0 0 0-.6-.57ZM.6 2.86h1.47c.33 0 .6-.26.6-.57a.58.58 0 0 0-.6-.58H.6a.59.59 0 0 0-.59.58c0 .31.27.57.6.57Zm5.62 1.71c1.1 0 2.02-.74 2.28-1.71h6.9c.33 0 .6-.26.6-.57a.58.58 0 0 0-.6-.58H8.5A2.37 2.37 0 0 0 6.22 0a2.34 2.34 0 0 0-2.37 2.29 2.34 2.34 0 0 0 2.37 2.28Zm0-3.43c.65 0 1.19.52 1.19 1.15 0 .62-.54 1.14-1.19 1.14-.65 0-1.18-.52-1.18-1.14 0-.63.53-1.15 1.18-1.15Z" />
  </symbol>
  <symbol id="like" viewBox="0 0 19 19" stroke="none">
    <path
      d="M11.44 3.18A2.51 2.51 0 0 0 8.93.67H7.88c-.58 0-1.09.37-1.28.92L4.9 6.72H2.68c-1.11 0-2.02.91-2.02 2.02v7.4c0 1.12.9 2.03 2.02 2.03h10.13c1.48 0 2.78-.96 3.21-2.38l2.04-6.6a2.43 2.43 0 0 0-2.32-3.14h-4.83l.48-2.38c.02-.16.04-.32.04-.5ZM2 16.15v-7.4c0-.38.3-.68.68-.68H4.7v8.75H2.69a.68.68 0 0 1-.68-.67ZM15.74 7.4a1.08 1.08 0 0 1 1.03 1.4l-2.03 6.6a2 2 0 0 1-1.92 1.42H6.05V7.51L7.88 2h1.05a1.17 1.17 0 0 1 1.14 1.4l-.64 3.18c-.04.2.01.4.14.56.13.16.32.25.52.25h5.65Z" />
  </symbol>
  <symbol id="pin" viewBox="0 0 12 16" fill="none">
    <path d="M11.5 6.1c0 2.3-1.4 4.6-2.9 6.5A24.9 24.9 0 0 1 6 15.3a22.5 22.5 0 0 1-2.6-2.7C1.9 10.7.5 8.4.5 6 .5 3 3 .5 6 .5s5.5 2.5 5.5 5.6Z" />
    <circle cx="6" cy="6" r="2.5" />
  </symbol>
  <symbol id="remove" viewBox="0 0 16 16" stroke="none">
    <path
      d="M1.53.7a.83.83 0 0 0-.59.24.82.82 0 0 0 0 1.17l5.89 5.9-5.89 5.88a.82.82 0 0 0 0 1.17c.33.33.85.33 1.17 0l5.9-5.89 5.88 5.9c.33.32.85.32 1.17 0a.82.82 0 0 0 0-1.18L9.17 8l5.9-5.89a.82.82 0 0 0 0-1.17.83.83 0 0 0-.6-.24.83.83 0 0 0-.58.24L8 6.84 2.11.93A.83.83 0 0 0 1.53.7Z" />
  </symbol>
</svg>
